<svg xmlns="http://www.w3.org/2000/svg" width="213.81" height="31.04" viewBox="0 0 213.81 31.04"><defs><style>.cls-1{fill:#ec6608;}.cls-2{fill:#4a4643;}</style></defs><title>textbroker-original</title><g id="Ebene_2" data-name="Ebene 2"><g id="Ebene_1-2" data-name="Ebene 1"><g id="Ebene_2-2" data-name="Ebene 2"><g id="Ebene_2-2-2" data-name="Ebene 2-2"><path class="cls-1" d="M10.67,31c-4.73,0-6.8-1.84-6.8-6.84V13.09L0,12.74V8.13H3.87V2.74h6.8V8.13h5v5h-5v11c0,1.8.12,2.19,1.84,2.19,1,0,1.76-.08,3.09-.16v4.3A22.26,22.26,0,0,1,10.67,31Z"/><path class="cls-1" d="M25.27,21.18v.31c0,2.85.39,4.38,5.2,4.38,2.27,0,6.17-.16,8.36-.39V30a37.84,37.84,0,0,1-8.68,1C22,31,18.52,28.09,18.52,20.44v-2c0-7.42,3.95-10.82,10.75-10.82,8.32,0,10.63,5.38,10.63,11.26v2.31Zm8-4.06c0-2.46-.51-4.61-4-4.61s-3.95,2.19-3.95,4.61v.31h7.93Z"/><path class="cls-1" d="M57.59,30.47,52.79,24l-4.34,6.45H42.51v-5l1.76-.23,4.53-6.56-3.95-5.31-2.15-.23v-5h6.64l4.53,6.14L58,8.13h6.1v5l-2.15.23L57.63,19.3l4.46,6,2.27.2v5Z"/><path class="cls-1" d="M77.9,31c-4.73,0-6.8-1.84-6.8-6.84V13.09l-3.87-.35V8.13H71.1V2.74h6.8V8.13h5v5H78v11c0,1.8.12,2.19,1.84,2.19,1,0,1.76-.08,3.09-.16v4.3A22.26,22.26,0,0,1,77.9,31Z"/><path class="cls-2" d="M96.75,31A79.64,79.64,0,0,1,87,30.43V5.16L85.18,5V0h8.56V8.32a12.22,12.22,0,0,1,4.57-.78c6.64,0,9.69,3.17,9.69,10.2V20.4C108,28.16,104.17,31,96.75,31Zm4.45-13.33c0-3.71-.9-4.88-3.79-4.88a10.68,10.68,0,0,0-3.71.66V25.59a30.71,30.71,0,0,0,3.17.16c3.13,0,4.34-1.13,4.34-5.35Z"/><path class="cls-2" d="M119.05,14.38V25.31l1.76.2v5H110.47v-5l1.8-.2v-12l-1.8-.2v-5h8.13V10A10.32,10.32,0,0,1,126,7.58V13.4A25.08,25.08,0,0,0,119.05,14.38Z"/><path class="cls-2" d="M137.73,31c-6.76,0-10.67-3.13-10.67-10.51v-2.4c0-7.39,3.91-10.51,10.67-10.51s10.75,3.13,10.75,10.51v2.42C148.48,27.89,144.57,31,137.73,31Zm3.95-12.93c0-3.91-1.17-5.24-3.95-5.24s-3.91,1.33-3.91,5.24v2.42c0,3.91,1.17,5.24,3.91,5.24s3.95-1.33,3.95-5.24Z"/><path class="cls-2" d="M166.41,30.47l-6.84-10.32V30.47H151v-5l1.8-.2V5.12L151,5V0h8.6V18l7-9.89h6.76v5l-2.54.23-4.57,5.51,4.92,6.33,2.23.27v5Z"/><path class="cls-2" d="M181.65,21.18v.31c0,2.85.39,4.38,5.2,4.38,2.27,0,6.17-.16,8.36-.39V30a37.84,37.84,0,0,1-8.68,1c-8.21,0-11.64-2.93-11.64-10.59v-2c0-7.42,3.95-10.82,10.75-10.82C194,7.58,196.26,13,196.26,18.87v2.31Zm8-4.06c0-2.46-.51-4.61-4-4.61s-3.95,2.19-3.95,4.61v.31h7.93Z"/><path class="cls-2" d="M207,14.38V25.31l1.76.2v5H198.34v-5l1.8-.2v-12l-1.8-.2v-5h8.13V10a10.32,10.32,0,0,1,7.35-2.42V13.4A25.08,25.08,0,0,0,207,14.38Z"/></g></g></g></g></svg>